<svg width="52" height="52" viewBox="0 0 52 52" fill="none" xmlns="http://www.w3.org/2000/svg">
<path d="M0.5 25.8278C0.5 11.8333 11.8333 0.5 25.8278 0.5C39.8223 0.5 51.1556 11.8333 51.1556 25.8278C51.1556 39.8223 39.8223 51.1556 25.8278 51.1556C11.8333 51.1556 0.5 39.8223 0.5 25.8278Z" stroke="#8B00AA"/>
<path d="M41.7734 15.9447C40.6009 16.4807 39.3279 16.8157 38.0215 16.9832C39.3614 16.1792 40.3999 14.9062 40.9024 13.3653C39.6294 14.1023 38.2225 14.6717 36.7485 14.9397C35.5426 13.6668 33.8676 12.8628 31.9582 12.8628C28.3403 12.8628 25.4258 15.7772 25.4258 19.3951C25.4258 19.8976 25.4928 20.4001 25.5933 20.9026C20.1665 20.6346 15.3426 18.0217 12.0932 14.0688C11.5237 15.0402 11.2222 16.1457 11.2222 17.3517C11.2222 19.6296 12.3947 21.6396 14.1366 22.812C13.0647 22.7785 12.0597 22.477 11.1887 22.008V22.075C11.1887 25.2575 13.4332 27.9039 16.4481 28.5069C15.9121 28.6409 15.3091 28.7414 14.7396 28.7414C14.3041 28.7414 13.9021 28.7079 13.5002 28.6409C14.3376 31.2538 16.7496 33.1297 19.597 33.1967C17.3526 34.9387 14.5386 36.0107 11.4567 36.0107C10.9207 36.0107 10.4182 36.0107 9.88226 35.9102C12.7632 37.7526 16.2136 38.8581 19.8985 38.8581C31.9246 38.8581 38.524 28.8754 38.524 20.2326C38.524 19.9646 38.524 19.6631 38.524 19.3951C39.7969 18.4571 40.9024 17.3182 41.7734 16.0117V15.9447Z" fill="#F1F2F2"/>
</svg>
