<svg width="60" height="60" viewBox="0 0 60 60" fill="none" xmlns="http://www.w3.org/2000/svg">
<path d="M33.6905 4.63188C47.498 6.87314 56.8742 19.8832 54.6329 33.6906C52.3917 47.498 39.3816 56.8743 25.5742 54.633C11.7668 52.3918 2.39056 39.3817 4.63182 25.5743C6.87308 11.7669 19.8831 2.39062 33.6905 4.63188Z" stroke="#8B00AA"/>
<path d="M44.4933 31.7122V41.9964H38.5305V32.4157C38.5305 30.0037 37.6595 28.3623 35.5156 28.3623C33.8741 28.3623 32.9026 29.4678 32.4671 30.5397C32.2996 30.9082 32.2661 31.4442 32.2661 31.9802V41.9964H26.3033C26.3033 41.9964 26.3703 25.7494 26.3033 24.0744H32.2661V26.6203C32.2661 26.6203 32.2661 26.6538 32.2326 26.6873H32.2661V26.6203C33.0701 25.4144 34.4771 23.6724 37.626 23.6724C41.5454 23.6724 44.4933 26.2518 44.4933 31.7457V31.7122ZM20.039 15.4316C17.9955 15.4316 16.6556 16.7716 16.6556 18.5136C16.6556 20.2555 17.962 21.629 19.9385 21.629H19.972C22.0489 21.629 23.3554 20.2555 23.3554 18.5136C23.3219 16.7381 22.0489 15.4316 20.039 15.4316ZM17.0241 41.9964H22.9869V24.0744H17.0241V41.9964Z" fill="#F1F2F2"/>
</svg>
