<svg width="52" height="52" viewBox="0 0 52 52" fill="none" xmlns="http://www.w3.org/2000/svg">
<path d="M51.1556 25.8278C51.1556 39.816 39.8159 51.1556 25.8278 51.1556C11.8396 51.1556 0.5 39.816 0.5 25.8278C0.5 11.8396 11.8396 0.5 25.8278 0.5C39.8159 0.5 51.1556 11.8396 51.1556 25.8278Z" stroke="#8B00AA"/>
<path d="M36.313 12.729H15.3761C13.9356 12.729 12.7632 13.9015 12.7632 15.3419V36.2789C12.7632 37.7193 13.9356 38.8918 15.3761 38.8918H36.313C37.7535 38.8918 38.9259 37.7193 38.9259 36.2789V15.3419C38.9259 13.9015 37.7535 12.729 36.313 12.729ZM25.8278 20.6013C28.7087 20.6013 31.0537 22.9462 31.0537 25.8271C31.0537 28.7081 28.7087 31.053 25.8278 31.053C22.9469 31.053 20.6019 28.7081 20.6019 25.8271C20.6019 22.9462 22.9469 20.6013 25.8278 20.6013ZM16.0126 36.3123C15.6106 36.3123 15.3761 36.0444 15.3761 35.6759V24.5542H18.123C17.989 24.9562 17.989 25.4921 17.989 25.8606C17.989 30.182 21.5399 33.7329 25.8613 33.7329C30.1827 33.7329 33.7336 30.182 33.7336 25.8606C33.7336 25.4586 33.7336 24.9562 33.5996 24.5542H36.3465V35.6759C36.3465 36.0779 36.0785 36.3123 35.71 36.3123H16.0126ZM36.313 18.6248C36.313 19.0268 36.045 19.2613 35.6765 19.2613H33.0636C32.6616 19.2613 32.4271 18.9933 32.4271 18.6248V16.0119C32.4271 15.6099 32.6951 15.3754 33.0636 15.3754H35.6765C36.0785 15.3754 36.313 15.6434 36.313 16.0119V18.6248Z" fill="#F1F2F2"/>
</svg>
